<mxfile host="app.diagrams.net" modified="2024-08-23T12:40:04.015Z" agent="Mozilla/5.0 (Macintosh; Intel Mac OS X 10_15_7) AppleWebKit/537.36 (KHTML, like Gecko) Chrome/127.0.0.0 Safari/537.36" etag="MB9aJ-29zVP1hk_oHcWB" version="24.7.2" type="device">
  <diagram id="C5RBs43oDa-KdzZeNtuy" name="Page-1">
    <mxGraphModel dx="954" dy="640" grid="1" gridSize="10" guides="1" tooltips="1" connect="1" arrows="1" fold="1" page="1" pageScale="1" pageWidth="827" pageHeight="1169" math="0" shadow="0">
      <root>
        <mxCell id="WIyWlLk6GJQsqaUBKTNV-0" />
        <mxCell id="WIyWlLk6GJQsqaUBKTNV-1" parent="WIyWlLk6GJQsqaUBKTNV-0" />
        <mxCell id="cl6PlU13ua5zeQVFiaY4-4" style="edgeStyle=orthogonalEdgeStyle;rounded=0;orthogonalLoop=1;jettySize=auto;html=1;entryX=0.5;entryY=0;entryDx=0;entryDy=0;" edge="1" parent="WIyWlLk6GJQsqaUBKTNV-1" source="cl6PlU13ua5zeQVFiaY4-0" target="cl6PlU13ua5zeQVFiaY4-2">
          <mxGeometry relative="1" as="geometry" />
        </mxCell>
        <mxCell id="cl6PlU13ua5zeQVFiaY4-0" value="BEGIN" style="ellipse;whiteSpace=wrap;html=1;" vertex="1" parent="WIyWlLk6GJQsqaUBKTNV-1">
          <mxGeometry x="340" y="30" width="90" height="60" as="geometry" />
        </mxCell>
        <mxCell id="cl6PlU13ua5zeQVFiaY4-1" value="END" style="ellipse;whiteSpace=wrap;html=1;" vertex="1" parent="WIyWlLk6GJQsqaUBKTNV-1">
          <mxGeometry x="340" y="585" width="90" height="60" as="geometry" />
        </mxCell>
        <mxCell id="cl6PlU13ua5zeQVFiaY4-5" style="edgeStyle=orthogonalEdgeStyle;rounded=0;orthogonalLoop=1;jettySize=auto;html=1;entryX=0.5;entryY=0;entryDx=0;entryDy=0;" edge="1" parent="WIyWlLk6GJQsqaUBKTNV-1" source="cl6PlU13ua5zeQVFiaY4-2">
          <mxGeometry relative="1" as="geometry">
            <mxPoint x="385" y="210" as="targetPoint" />
          </mxGeometry>
        </mxCell>
        <mxCell id="cl6PlU13ua5zeQVFiaY4-2" value="INPUT NAMA dan NILAI MAHASISWA" style="shape=parallelogram;perimeter=parallelogramPerimeter;whiteSpace=wrap;html=1;fixedSize=1;" vertex="1" parent="WIyWlLk6GJQsqaUBKTNV-1">
          <mxGeometry x="303.75" y="120" width="162.5" height="60" as="geometry" />
        </mxCell>
        <mxCell id="cl6PlU13ua5zeQVFiaY4-8" style="edgeStyle=orthogonalEdgeStyle;rounded=0;orthogonalLoop=1;jettySize=auto;html=1;entryX=0.5;entryY=0;entryDx=0;entryDy=0;" edge="1" parent="WIyWlLk6GJQsqaUBKTNV-1" source="cl6PlU13ua5zeQVFiaY4-6" target="cl6PlU13ua5zeQVFiaY4-7">
          <mxGeometry relative="1" as="geometry" />
        </mxCell>
        <mxCell id="cl6PlU13ua5zeQVFiaY4-6" value="SIMPAN NAMA dan NILAI MAHASISWA" style="rounded=0;whiteSpace=wrap;html=1;" vertex="1" parent="WIyWlLk6GJQsqaUBKTNV-1">
          <mxGeometry x="325" y="210" width="120" height="60" as="geometry" />
        </mxCell>
        <mxCell id="cl6PlU13ua5zeQVFiaY4-11" style="edgeStyle=orthogonalEdgeStyle;rounded=0;orthogonalLoop=1;jettySize=auto;html=1;entryX=0.5;entryY=0;entryDx=0;entryDy=0;" edge="1" parent="WIyWlLk6GJQsqaUBKTNV-1" source="cl6PlU13ua5zeQVFiaY4-7" target="cl6PlU13ua5zeQVFiaY4-9">
          <mxGeometry relative="1" as="geometry" />
        </mxCell>
        <mxCell id="cl6PlU13ua5zeQVFiaY4-12" style="edgeStyle=orthogonalEdgeStyle;rounded=0;orthogonalLoop=1;jettySize=auto;html=1;entryX=0.5;entryY=0;entryDx=0;entryDy=0;" edge="1" parent="WIyWlLk6GJQsqaUBKTNV-1" source="cl6PlU13ua5zeQVFiaY4-7" target="cl6PlU13ua5zeQVFiaY4-10">
          <mxGeometry relative="1" as="geometry" />
        </mxCell>
        <mxCell id="cl6PlU13ua5zeQVFiaY4-7" value="JIKA NILAI &amp;gt;=60" style="rhombus;whiteSpace=wrap;html=1;" vertex="1" parent="WIyWlLk6GJQsqaUBKTNV-1">
          <mxGeometry x="335" y="300" width="100" height="80" as="geometry" />
        </mxCell>
        <mxCell id="cl6PlU13ua5zeQVFiaY4-17" style="edgeStyle=orthogonalEdgeStyle;rounded=0;orthogonalLoop=1;jettySize=auto;html=1;entryX=0.5;entryY=0;entryDx=0;entryDy=0;" edge="1" parent="WIyWlLk6GJQsqaUBKTNV-1" source="cl6PlU13ua5zeQVFiaY4-9" target="cl6PlU13ua5zeQVFiaY4-16">
          <mxGeometry relative="1" as="geometry" />
        </mxCell>
        <mxCell id="cl6PlU13ua5zeQVFiaY4-9" value="SIMPAN KETERANGAN = LULUS" style="rounded=0;whiteSpace=wrap;html=1;" vertex="1" parent="WIyWlLk6GJQsqaUBKTNV-1">
          <mxGeometry x="325" y="410" width="120" height="60" as="geometry" />
        </mxCell>
        <mxCell id="cl6PlU13ua5zeQVFiaY4-18" style="edgeStyle=orthogonalEdgeStyle;rounded=0;orthogonalLoop=1;jettySize=auto;html=1;entryX=1;entryY=0.5;entryDx=0;entryDy=0;" edge="1" parent="WIyWlLk6GJQsqaUBKTNV-1" source="cl6PlU13ua5zeQVFiaY4-10" target="cl6PlU13ua5zeQVFiaY4-16">
          <mxGeometry relative="1" as="geometry">
            <Array as="points">
              <mxPoint x="570" y="530" />
            </Array>
          </mxGeometry>
        </mxCell>
        <mxCell id="cl6PlU13ua5zeQVFiaY4-10" value="SIMPAN KETERANGAN= TIDAK LULUS" style="rounded=0;whiteSpace=wrap;html=1;" vertex="1" parent="WIyWlLk6GJQsqaUBKTNV-1">
          <mxGeometry x="510" y="410" width="120" height="60" as="geometry" />
        </mxCell>
        <mxCell id="cl6PlU13ua5zeQVFiaY4-13" value="TRUE" style="text;html=1;align=center;verticalAlign=middle;whiteSpace=wrap;rounded=0;" vertex="1" parent="WIyWlLk6GJQsqaUBKTNV-1">
          <mxGeometry x="384" y="380" width="60" height="30" as="geometry" />
        </mxCell>
        <mxCell id="cl6PlU13ua5zeQVFiaY4-15" value="FALSE" style="text;html=1;align=center;verticalAlign=middle;whiteSpace=wrap;rounded=0;" vertex="1" parent="WIyWlLk6GJQsqaUBKTNV-1">
          <mxGeometry x="490" y="310" width="60" height="30" as="geometry" />
        </mxCell>
        <mxCell id="cl6PlU13ua5zeQVFiaY4-19" style="edgeStyle=orthogonalEdgeStyle;rounded=0;orthogonalLoop=1;jettySize=auto;html=1;entryX=0.5;entryY=0;entryDx=0;entryDy=0;" edge="1" parent="WIyWlLk6GJQsqaUBKTNV-1" source="cl6PlU13ua5zeQVFiaY4-16" target="cl6PlU13ua5zeQVFiaY4-1">
          <mxGeometry relative="1" as="geometry" />
        </mxCell>
        <mxCell id="cl6PlU13ua5zeQVFiaY4-16" value="OUTPUT NAMA dan KETERANGAN" style="shape=parallelogram;perimeter=parallelogramPerimeter;whiteSpace=wrap;html=1;fixedSize=1;" vertex="1" parent="WIyWlLk6GJQsqaUBKTNV-1">
          <mxGeometry x="312.5" y="500" width="145" height="60" as="geometry" />
        </mxCell>
      </root>
    </mxGraphModel>
  </diagram>
</mxfile>
